<?xml version="1.0" encoding="UTF-8"?>
<svg id="Layer_1" data-name="Layer 1" xmlns="http://www.w3.org/2000/svg" viewBox="0 0 2436.85 1489.26">
  <defs>
    <style>
      .cls-1 {
        fill: #000;
        stroke-width: 0px;
      }
    </style>
  </defs>
  <path class="cls-1" d="M933.93,0c7.97,1.34,16.06,2.21,23.9,4.12,24.33,5.94,46.34,16.36,59.11,39.09,43.99,78.28-6.85,152.72-75.93,161.78-37.61,4.93-69.47-7.04-95.04-34.54-16.97-18.26-23.96-40.5-20.19-65.44,3.13-20.72,6.45-41.54,15.35-60.74,3.8-8.21,8.91-15.98,14.42-23.19,10.23-13.4,24.35-19.66,41.17-20.06,2.41-.06,4.81-.66,7.21-1.01,10,0,20,0,30,0Z"/>
  <path class="cls-1" d="M1739.25,598.61c23.57-24.97,45.96-50.1,69.87-73.7,45.43-44.82,95.01-84.55,150.44-116.56,15.75-9.1,32.32-16.55,50.47-19.54,25.41-4.19,49.36.79,72.04,12.41,9.17,4.7,18,10.05,27.1,14.89,1.53.81,3.86,1.26,5.41.71,39.74-14.13,80.62-16.43,122.23-12.57,12.58,1.17,25.12.34,37.8-1.02,48.38-5.16,95.6,19.64,111.9,64.07,7.32,19.95,7.13,40.57,3.04,61.09-9.3,46.65-30.11,87.54-62.99,122.05-26.25,27.56-58.06,43.11-96.7,42.53-27.38-.41-53.36-6.89-77.68-19.65-1.01-.53-1.96-1.18-3.42-2.07,1.54-1.37,2.84-2.52,4.13-3.67,50.05-44.69,88.02-97.76,111.3-160.91,3.34-9.06,5.56-18.53,4.03-28.36-.43-2.75-1.38-5.43-2.28-8.88-11.16,5.55-21.9,10.65-32.42,16.18-39.07,20.53-73.76,47.16-105.57,77.46-16.37,15.59-31.86,32.22-46.55,49.4-6.99,8.17-11.51,18.57-16.6,28.24-20.43,38.86-41.2,77.55-60.75,116.86-11.68,23.48-21.18,48.04-31.96,71.99-3.77,8.38-3.68,16.67-1.77,25.32,8.24,37.21,33.86,60.45,73.16,66.55,34.92,5.42,68.77.02,101.89-10.62,63.71-20.45,119.8-54.36,169.98-98.24,29.71-25.98,55.67-55.41,79.03-87.19,1.5-2.04,4.28-4.13,6.64-4.35,6.88-.65,13.89-.83,20.78-.28,5.73.45,9.58,4.43,11.72,9.7,1.11,2.75,1.7,5.72,2.53,8.59,1.94,6.71.25,12.12-4,17.93-68.22,93.11-154.31,165-257.31,216.76-38.74,19.47-79.4,33.63-122.59,39.03-17.44,2.18-35.19,1.87-52.79,2.86-2.91.16-5.92.86-8.61,1.97-23.73,9.8-48.02,16.68-74.04,16.3-36.04-.53-65.34-14.21-87.96-42.62-14.87-18.68-26.58-38.68-30.49-62.5-3.83-23.32-3.56-46.75-.85-70.16,4.89-42.17,18.23-81.99,33.79-121.2,8.76-22.08,15.99-44.85,26.11-66.27,10.76-22.8,23.97-44.45,36.39-66.45,17.81-31.56,35.91-62.96,53.81-94.47,2.6-4.57,4.8-9.37,6.42-14.8-8.37,6.94-16.78,13.84-25.11,20.84-76.87,64.65-143.52,138.84-204.24,218.57-52.79,69.31-102.26,140.88-148.15,214.96-13.73,22.17-29.56,43.05-44.52,64.46-1.8,2.57-4.13,4.79-6.35,7.04-8.35,8.45-18.01,11.67-29.98,8.87-20.26-4.74-39.47-11.95-57.41-22.44-9.3-5.44-17.34-12.42-23.63-21.2-8.31-11.6-10.78-24.58-5.77-37.87,10.42-27.68,20.78-55.44,32.73-82.48,20.35-46.06,41.06-92.01,63.14-137.26,34.35-70.39,69.97-140.15,105.04-210.18.57-1.13.98-2.34.61-4.19-7.02,6.67-14.06,13.3-21.04,20-71.67,68.74-135.88,144.12-197.96,221.44-47.77,59.49-93.23,120.68-137.56,182.76-16.43,23.01-34.45,44.9-51.82,67.23-11.07,14.23-25.73,16.92-42.16,12.04-30.63-9.1-54.19-27.81-71.96-54.07-8.84-13.07-8.08-27.1-4.49-41.72,7.63-31.14,19.46-60.73,32.07-90.07,40.73-94.81,90.38-184.92,144.21-272.81,18.95-30.93,37.92-61.85,56.87-92.78.83-1.35,1.56-2.76,1.62-4.79-8.36,6.98-16.82,13.84-25.06,20.96-47.07,40.66-91.8,83.7-132.31,130.97-54.57,63.66-105.14,130.4-151.91,199.95-26.93,40.04-52.33,81.09-78.96,121.33-10.82,16.34-22.73,32-34.76,47.49-8.85,11.39-20.43,15.2-35.06,11.31-22.72-6.04-44.56-13.83-63.53-27.95-10.1-7.51-18.78-16.58-21.82-29.52-1.87-7.93-2.13-15.92.87-23.58,10.86-27.69,21.12-55.65,33.07-82.87,18.91-43.06,38.16-86.01,58.79-128.27,35.38-72.47,71.93-144.37,107.99-216.51.95-1.89,1.86-3.8,1.96-6.46-3.27,3.04-6.57,6.05-9.81,9.12-73.09,68.96-138.64,144.7-201.67,222.78-51.49,63.77-100.18,129.61-148.24,195.97-10.61,14.65-15.56,31.03-21.55,47.29-15.74,42.74-31.19,85.58-46.75,128.39-.5,1.38-.93,2.78-1.78,5.36,8.8,1.12,17.12,2.2,25.45,3.22,30.07,3.71,60.09,8.02,90.24,10.94,43.32,4.19,85.8-.02,126.54-16.39,15.85-6.37,30.01-15.74,44.71-27.31-2.09,7.32-3.62,13.26-5.49,19.1-13.47,42.07-34.28,79.75-67.22,109.85-32.68,29.87-71.6,47.35-114.65,56.29-32.78,6.81-65.91,6.17-99.02,4.24-19.77-1.15-39.49-3.23-59.19-5.27-4.87-.51-5.87,2.55-7.44,5.6-8.53,16.55-16.42,33.47-25.73,49.58-22.41,38.78-48.42,75-80.89,106.11-36.38,34.85-77.04,63.1-126.2,76.96-42.64,12.02-85.33,13-126.8-4.47-44.88-18.9-78.36-51.16-100.26-94.16-32.29-63.39-27.08-126.58,7.12-187.57,31.55-56.27,79.6-92.8,140.67-112.95,35.7-11.78,72.25-17.87,109.77-19.19,36.69-1.29,73.26-.53,109.7,4.1,4,.51,4.24-1.95,5.1-4.43,16.96-49.01,33.9-98.03,50.93-147.02,43.12-124.04,95.16-244.42,150.57-363.36,28.16-60.45,60.85-118.39,102.42-170.89,18.43-23.28,39.36-43.78,65.05-59.14,25.64-15.33,53.6-19.13,82.74-17.01,12.85.94,25.4,3.64,36.91,9.73,4.06,2.15,7.74,5.01,11.63,7.57-64.1,101.65-114.39,209.67-165.69,317.17.38.25.76.5,1.14.75,5.47-6.34,10.93-12.7,16.42-19.03,52.38-60.39,105.49-120.13,162.23-176.49,25.62-25.45,52.04-50.23,83.1-69.24,9.05-5.54,18.58-10.42,28.23-14.86,19.99-9.21,40.71-9.53,61.41-2.85,30.53,9.85,56.16,27.18,76.67,51.93,1.59,1.92,2.95,4.02,4.41,6.05,6.41,8.89,8.34,18.48,3.81,28.71-3.96,8.94-8.24,17.76-12.61,26.51-15.22,30.49-30.54,60.93-45.81,91.4-.19.38-.12.88-.14,1.04,14.68-16.33,29.1-33.11,44.31-49.14,49.28-51.93,103.65-97.81,164.84-135.21,12.7-7.76,26.42-14.13,40.24-19.72,23.21-9.4,47.26-9.8,70.92-1.78,30.02,10.18,56.7,25.9,78.99,48.97,11.84,12.25,15.62,24.99,7.75,40.5-8.19,16.16-16.17,32.42-24.59,48.47-14.52,27.69-29.31,55.24-43.96,82.85-.74,1.39-1.32,2.86-1.38,4.64,12.25-13.3,24.47-26.62,36.75-39.9,35.39-38.29,71.36-76.01,111.76-109.17,17.02-13.97,35.24-26.1,55.26-35.59,23.5-11.15,47.15-11.75,71.25-2.87,28.75,10.59,53.07,27.5,72.34,51.45.94,1.17,1.77,2.42,2.66,3.62,7.08,9.54,9.24,19.8,4.23,30.93-3.47,7.72-7.04,15.41-10.88,22.96-16.05,31.52-32.21,62.99-48.58,94.96ZM344.51,1213.54c-1.21-.47-1.95-.87-2.74-1.05-32.78-7.34-65.43-15.38-98.39-21.8-48.21-9.39-92.39,1.39-131.52,30.77-35.84,26.91-55.58,71.04-32.12,120.18,21.64,45.33,71.19,70.1,119.2,58.35,28.83-7.05,50.9-24.46,70.2-46.14,36.18-40.66,55.71-90.2,75.37-140.3Z"/>
  <path class="cls-1" d="M1781.24,1191.68c13.42-15.11,28.14-26.21,50.35-21.46-27.7,56.91-54.94,112.87-82.61,169.73,23.16,5.12,46.22,10.76,69.52,15.14,13.03,2.45,25.82-.2,37.48-7.93,2.01,5.27-.23,9.55-2.75,13.61-7.68,12.39-19.01,19.78-32.96,23.35-21.57,5.52-42.99,3.31-64.28-1.62-9.22-2.13-18.32-4.74-26.71-6.93-8.35,9.96-15.77,20.3-24.68,29.14-15.57,15.43-34.25,23.65-56.7,18.82-26.8-5.77-39.8-30.03-31.47-57.78,4.61-15.37,15.56-24.39,29.91-29.88,13.78-5.27,28.21-6.23,42.79-5.37,6.31.37,12.6,1.19,18.91,1.56,1.37.08,3.63-.49,4.06-1.42,4.15-8.98,7.99-18.1,12.24-27.92-5.79,4.73-10.56,9.17-15.86,12.86-31.23,21.77-56.77-2.82-59.59-27.49-.29-2.58-.54-5.16-.9-8.6-4.48,5.07-8.08,9.85-12.38,13.87-8.5,7.93-17.07,15.85-26.21,23-6.61,5.17-14.56,8.02-23.23,7.92-11.22-.12-20.6-6.95-24.24-17.5-3.05-8.84-3.57-17.89-2.53-27.1.22-1.94.4-3.89.68-6.58-8.95,6.02-17.84,11.31-27.98,11.2-9.68-.11-14.68,4.78-20.45,11.52-19.73,23.02-45.32,31.86-75.19,27.26-11.84-1.83-21.37-8.09-26.43-18.36-11.32,6.39-22.16,13.24-33.63,18.77-11.23,5.42-23.46,8.21-35.93,5.05-19.65-4.98-29.87-19.34-35.44-37.73-1.13-3.74-1.52-7.71-2.2-11.31-8.69,9.14-17.01,18.64-26.17,27.25-5.88,5.53-12.53,10.64-19.65,14.36-24.22,12.66-39.82-4.63-40.9-24.07-.06-1.13-.11-2.26-.22-4.39-3.73,4.13-6.82,7.69-10.06,11.12-6.8,7.22-14.45,13.34-23.72,17.1-20.26,8.22-40.36-1.17-47.05-22-4.43-13.78-3.62-27.71.1-41.37,8.55-31.4,25.72-57.24,52.19-76.33,14.04-10.13,29.86-15.37,47.53-12.05,11.11,2.09,14.14,4.48,23.37,17.6,11.76-19.37,23.36-39,35.53-58.25,4.86-7.7,10.6-14.95,16.66-21.76,8.83-9.93,25.84-11.86,35.38-4.24-1.88,3.47-3.76,7.09-5.77,10.64-24.91,44.01-50.29,87.77-71.23,133.86-6.32,13.9-11.71,28.23-17.32,42.45-1.44,3.64-3.39,8.01.18,11.22,3.59,3.23,8.04.99,11.13-1.12,6.82-4.66,13.88-9.4,19.37-15.44,7.91-8.7,14.67-18.49,21.6-28.04,2.1-2.89,3.39-6.45,4.67-9.85,10.34-27.48,26.32-50.57,52.66-64.8,16.35-8.83,33.95-13.82,52.9-10.21,16.5,3.14,24.97,15.92,21.46,32.31-2.84,13.26-10.04,23.85-20.65,32.06-19.67,15.22-41.79,23.04-66.9,21.41-.66-.04-1.32,0-2.36,0-3.26,9.52-5.31,19.2-3.15,29.23,2.81,13.06,12.63,19.48,26.92,17.77,12.69-1.52,23.85-7.09,34.41-13.9,1.17-.76,1.92-2.97,1.97-4.54.8-26.82,18.66-46.64,45.26-49.7,3.67-.42,5.89-1.83,8.05-4.74,15.16-20.47,30.53-40.79,45.79-61.19,2.19-2.92,4.2-5.99,6.11-9.1,8.85-14.38,28.54-20.78,43.98-13.99-11.71,18.76-12.8,40.25-15.81,61.26-2.61,18.25-5.29,36.48-8.12,55.93,3.7-.33,8.39,0,12.6-1.25,11.94-3.58,20.81-11.12,25.32-22.93,6.87-17.99,16.19-34.66,27.06-50.45,3.74-5.43,8.4-10.35,13.24-14.87,7.91-7.38,23.57-8.6,32.81-3.05,1.51.91,2.76,2.25,3.52,2.88-9.21,15.86-18.58,30.97-26.91,46.62-10.08,18.94-19.15,38.42-24.08,59.47-.85,3.65-.95,7.62-.61,11.37.49,5.36,3.99,7.78,9.11,6.11,3.89-1.27,7.77-3.17,11.06-5.59,18.65-13.73,33.75-30.63,44.15-51.41,9.55-19.1,21.66-36.24,37.29-50.86,11.38-10.64,24.3-18.61,39.5-22.47,23.38-5.94,37.63,1.41,46.24,24.13ZM1685.79,1277.01c-.12,15.55,6.32,20.84,18.78,18.05,2.86-.64,5.73-1.89,8.2-3.48,12.53-8.05,22.99-18.23,30.04-31.44,7.04-13.2,14.06-26.45,20.14-40.1,2.32-5.21,3.03-11.64,2.71-17.42-.55-10.16-7.98-15.68-17.93-13.5-5.17,1.13-10.56,3.44-14.71,6.68-17.32,13.52-28.94,31.5-38.01,51.22-4.81,10.45-8.87,21.18-9.21,30.01ZM1169.07,1278.91c-1.21,16.52,4.28,20.43,14.76,15.6,1.96-.9,3.86-1.95,5.69-3.1,17.07-10.73,29.66-25.48,38.56-43.44,4.5-9.07,9.06-18.16,12.78-27.56,2.15-5.43,3.66-11.51,3.7-17.3.09-11.56-8.33-17.17-18.85-12.51-6.42,2.85-12.86,6.68-17.83,11.56-22.82,22.4-33.75,50.75-38.8,76.74ZM1695.66,1364.99c-13.59-2.87-26.43-7.87-40.04-5.69-5.45.88-11.08,3.64-15.56,6.98-7.31,5.45-9.28,16.09-5.95,24.98,2.68,7.14,10.44,12.08,19.47,12.27,6.7.14,12.72-1.87,18.17-5.77,11.39-8.15,17.47-20.09,23.89-32.76ZM1483.86,1277.82c-6.03-2.73-11.74-5.36-17.48-7.9-2.58-1.14-5.18-2.29-7.87-3.11-3-.92-6.1-1.85-9.19-2.02-1.77-.09-4.17.84-5.34,2.15-5.53,6.19-10.85,12.57-15.96,19.11-1.08,1.39-1.71,3.94-1.25,5.59,2.58,9.24,11.74,15.04,22.05,13.94,17.43-1.87,27.61-12.97,35.04-27.77ZM1349.44,1246.17c23.51-6.85,43.01-17.4,56.81-36.74,3.92-5.5,5.66-11.54,4.92-18.33-.43-3.97-2.87-5.43-6.17-4.44-4.08,1.23-8.31,2.74-11.76,5.15-19.48,13.58-32.52,32.45-43.78,54.35ZM1495.58,1246.05c1.57-15.52,3.11-30.68,4.64-45.83-.4-.09-.8-.18-1.2-.28-9.28,12.24-18.56,24.48-27.88,36.76,8,3.06,15.58,5.96,24.44,9.35Z"/>
  <path class="cls-1" d="M1923.86,1199.52c-9.25,8.74-19.09,16.95-27.65,26.33-21.63,23.7-39.43,50.24-55.77,77.79-1.7,2.86-3.47,5.68-5.33,8.43-3.84,5.68-8.33,7-14.61,4.42-11.7-4.81-17.21-14.89-13.29-26.74,3.84-11.63,7.75-23.52,13.73-34.12,14.46-25.63,30.13-50.59,45.37-75.79,1.28-2.12,2.81-4.15,4.46-6,3.85-4.31,8.54-5.54,14-3.34.31.12.6.29.91.42,13.55,5.6,15.26,10.79,7.51,23.16-5.74,9.16-11.57,18.26-17.32,27.41-.83,1.33-1.41,2.81-1.33,4.71,6.53-6.98,12.66-14.4,19.69-20.84,10.15-9.31,20.32-18.83,31.65-26.57,13.54-9.25,31.37-6.8,43.03,3.7,3.35,3.01,4.33,5.97,2.14,10.05-3.63,6.73-6.96,13.61-10.6,20.34-11.21,20.78-22.69,41.41-33.62,62.33-2.4,4.59-3.53,10.06-4.27,15.27-1.28,9.03,4.5,13.65,13.15,10.84,10.3-3.34,18.74-9.84,25.22-18.13,9.8-12.56,18.6-25.91,27.83-38.92.95-1.33,1.71-3.5,2.91-3.8,2.38-.58,6.02-1.1,7.29.18,1.43,1.44,1.92,5.48.92,7.4-12.05,22.95-26.13,44.51-45.34,62.26-8.65,7.99-18.35,14.34-30.04,17.1-20.95,4.93-38.06-8.38-38.75-29.91-.54-17.03,5.18-32.54,12.25-47.38,6.92-14.52,15.6-28.21,23.49-42.27,1.29-2.3,2.46-4.67,3.68-7l-1.3-1.33Z"/>
  <path class="cls-1" d="M1650.44,1098.12c16.53.25,28.08,9.66,27.97,22.79-.13,15.61-10.27,26.14-24.83,25.81-13.43-.3-24.62-9.67-23.64-21.14,1.79-21.01,7.91-27.8,20.5-27.47Z"/>
  <path class="cls-1" d="M2424.94,1244.29c1.03,3.08.73,5.04-3.1,4.72-.66-.06-1.33,0-2,0-120.33,0-240.66,0-360.99-.02-2.83,0-7,1.22-5.29-4.69h371.38Z"/>
  <path class="cls-1" d="M870,1249v-4.73h209.97c1.13,4.69,1.13,4.73-4.06,4.73-45.99.01-91.98,0-137.96,0-20.66,0-41.32,0-61.98,0h-5.97Z"/>
</svg>